<svg width="56" height="56" viewBox="0 0 56 56" fill="none" xmlns="http://www.w3.org/2000/svg">
<path d="M24.6299 35.6052C27.8182 35.2558 33.8746 33.0863 34.9748 37.0644C36.075 41.0424 32.9135 41.1004 26.9865 42.2266C22.2095 42.7862 12.8151 42.3728 8.91909 41.8233C10.5559 40.1199 20.2988 37.0664 24.6299 35.6052Z" fill="#A9D7D0"/>
<path d="M44.9435 33.0894C42.6961 35.4242 39.602 40.9945 35.6284 38.7101C31.6548 36.4256 34.1083 34.3281 37.9142 29.6284C41.2533 26.1031 49.0011 20.3115 52.5093 18.1946C52.5447 20.5423 47.2266 29.174 44.9435 33.0894Z" fill="#A9D7D0"/>
<path d="M39.5247 22.3239C37.5478 24.8303 35.0888 30.6263 30.8785 28.6744C26.6681 26.7224 28.8767 24.4354 32.1414 19.4485C35.0723 15.6684 42.1394 9.27487 45.3957 6.88319C45.6927 9.21732 41.361 18.2411 39.5247 22.3239Z" fill="#A9D7D0"/>
<path d="M19.1353 25.1936C22.6773 25.2191 29.7039 23.7748 30.1141 27.8471C30.5244 31.9193 27.0694 31.608 20.3904 32.033C15.0764 32.0305 4.92567 30.5246 0.790867 29.5253C2.91118 28.0275 14.1283 26.1369 19.1353 25.1936Z" fill="#A9D7D0"/>
<path d="M23.2775 13.452C25.1474 16.0174 30.3379 20.3068 26.5236 22.7809C22.7094 25.2551 21.1692 22.5995 17.1744 18.0153C14.3334 14.1855 10.3936 6.06715 9.17104 2.55372C11.7892 3.27992 19.6639 10.3495 23.2775 13.452Z" fill="#A9D7D0"/>
<path d="M35.7293 37.0092C40.3146 46.5766 44.4074 54.5522 43.6296 54.8233C42.8518 55.0943 38.7719 46.5766 34.1867 37.0092C29.6014 27.4419 23.7653 18.4997 24.9275 18.4997C26.7383 17.0779 31.1441 27.4419 35.7293 37.0092Z" fill="#D19E9E" fill-opacity="0.9"/>
</svg>
