<svg width="381" height="396" viewBox="0 0 381 396" fill="none" xmlns="http://www.w3.org/2000/svg">
<path d="M184.272 303.684C184.272 329.565 222.309 349.829 196.105 349.829C192.791 349.829 172.271 329.565 172.271 303.684C172.271 277.802 174.957 256.821 178.271 256.821C181.586 256.821 184.272 277.802 184.272 303.684Z" fill="#A9D7D0"/>
<path d="M166.025 194.771C189.117 206.459 177.628 292.235 163.213 320.341C148.797 348.446 116.75 339.869 93.6584 328.181C70.567 316.493 32.1987 295.041 46.6145 266.935C61.0303 238.83 142.934 183.083 166.025 194.771Z" fill="#A9D7D0"/>
<path d="M195.528 187.537C187.682 214.719 99.9424 222.605 69.419 213.911C38.8956 205.216 42.137 169.278 49.9834 142.095C57.8297 114.913 72.9008 69.2716 103.424 77.9661C133.948 86.6607 203.374 160.354 195.528 187.537Z" fill="#A9D7D0"/>
<path d="M166.609 184.09C149.877 161.213 197.639 87.6757 223.328 69.135C249.017 50.5942 275.53 75.2573 292.262 98.1347C308.994 121.012 335.921 160.909 310.232 179.45C284.542 197.991 183.341 206.967 166.609 184.09Z" fill="#A9D7D0"/>
<path d="M177.086 197.373C196.133 176.359 278.473 207.478 302.07 228.585C325.668 249.692 306.895 280.581 287.848 301.596C268.8 322.61 235.113 357.07 211.516 335.963C187.918 314.856 158.038 218.388 177.086 197.373Z" fill="#A9D7D0"/>
<ellipse rx="14.1171" ry="15.6511" transform="matrix(0.999414 0.0520305 -0.0526428 0.997837 129.531 197.675)" fill="#575252"/>
<ellipse rx="5.64686" ry="6.82229" transform="matrix(0.999414 0.0520304 -0.0526428 0.997837 132.606 193.018)" fill="#D9D9D9"/>
<ellipse rx="14.1171" ry="15.6511" transform="matrix(0.999414 0.0520304 -0.0526428 0.997837 212.135 201.915)" fill="#575252"/>
<ellipse rx="5.64686" ry="6.82229" transform="matrix(0.999414 0.0520304 -0.0526428 0.997837 207.953 196.88)" fill="#D9D9D9"/>
<ellipse rx="8.3167" ry="7.03351" transform="matrix(0.999414 0.0520303 -0.0526429 0.997837 168.962 224.151)" fill="#575252"/>
</svg>
