<svg width="635" height="171" viewBox="0 0 635 171" fill="none" xmlns="http://www.w3.org/2000/svg">
<path d="M0 50C0 22.3858 22.3858 0 50 0H635V121C635 148.614 612.614 171 585 171H0V50Z" fill="#A9D7D0"/>
<path d="M54.3987 137V34.8H83.3067V137H54.3987ZM103.873 137V34.8H127.671L170.011 104.296H157.455L198.627 34.8H222.425L222.717 137H196.145L195.853 75.242H200.379L169.573 126.926H156.725L125.043 75.242H130.591V137H103.873ZM270.036 79.622H317.194V101.96H270.036V79.622ZM272.08 137H243.172V34.8H323.326V57.138H272.08V137ZM336.846 137V34.8H365.754V137H336.846ZM386.321 137V34.8H410.119L466.475 102.836H455.233V34.8H483.557V137H459.759L403.403 68.964H414.645V137H386.321ZM530.52 74.366H577.97V95.974H530.52V74.366ZM532.564 114.662H586V137H503.948V34.8H584.102V57.138H532.564V114.662Z" fill="white"/>
</svg>
