<svg width="123" height="123" viewBox="0 0 123 123" fill="none" xmlns="http://www.w3.org/2000/svg">
<path d="M59.9929 94.1323C60.1204 102.116 72.6538 108.551 64.0883 108.425C63.0049 108.409 56.1973 102.059 56.0698 94.0745C55.9423 86.0903 56.7171 79.6309 57.8004 79.6468C58.8838 79.6628 59.8654 86.1482 59.9929 94.1323Z" fill="#F2C08C"/>
<path d="M53.4922 60.4461C61.0979 64.163 57.7652 90.5686 53.1915 99.1693C48.6178 107.77 38.1 104.97 30.4943 101.253C22.8886 97.536 10.2411 90.7332 14.8148 82.1325C19.3886 73.5318 45.8866 56.7293 53.4922 60.4461Z" fill="#F2C08C"/>
<path d="M63.0998 58.3567C60.6689 66.7044 32.0276 68.7142 22.0073 65.8849C11.9869 63.0557 12.8694 51.9848 15.3003 43.6371C17.7312 35.2895 22.4327 21.2823 32.453 24.1116C42.4733 26.9409 65.5307 50.009 63.0998 58.3567Z" fill="#F2C08C"/>
<path d="M53.6297 57.154C48.0476 50.016 63.2977 27.5609 71.6036 21.9651C79.9095 16.3693 88.6975 24.1054 94.2796 31.2434C99.8617 38.3815 108.86 50.8191 100.554 56.4148C92.2483 62.0106 59.2118 64.2921 53.6297 57.154Z" fill="#F2C08C"/>
<path d="M57.1196 61.3021C63.2423 54.9112 90.3108 64.9081 98.1283 71.533C105.946 78.1579 99.9617 87.5965 93.8389 93.9874C87.7162 100.378 76.8744 110.846 69.0569 104.221C61.2394 97.5965 50.9968 67.6931 57.1196 61.3021Z" fill="#F2C08C"/>
<ellipse rx="4.51555" ry="4.9151" transform="matrix(0.999189 0.0752066 -0.0261858 0.998151 41.5765 61.1664)" fill="#575252"/>
<ellipse rx="1.80381" ry="2.14019" transform="matrix(0.999191 0.0751496 -0.0262577 0.998147 42.5587 59.7447)" fill="#D9D9D9"/>
<ellipse rx="4.51555" ry="4.9151" transform="matrix(0.999189 0.0752067 -0.0261857 0.998151 68.599 62.8726)" fill="#575252"/>
<ellipse rx="1.80381" ry="2.14019" transform="matrix(0.999191 0.0751494 -0.0262579 0.998147 67.2071 61.299)" fill="#D9D9D9"/>
<path d="M47.2872 70.2574C46.7382 69.7131 47.7677 71.5186 52.7092 72.8565C57.6507 74.1943 62.0424 69.1687 62.0424 70.2573C62.0424 71.3459 52.2287 75.6834 47.2872 70.2411" stroke="#575252"/>
<path fill-rule="evenodd" clip-rule="evenodd" d="M41.2895 71.6239C46.9905 71.6239 51.6121 67.0427 51.6121 61.3916C51.6121 55.7405 46.9905 51.1593 41.2895 51.1593C35.5884 51.1593 30.9668 55.7405 30.9668 61.3916C30.9668 67.0427 35.5884 71.6239 41.2895 71.6239ZM41.2915 69.7639C45.956 69.7639 49.7373 66.0157 49.7373 61.392C49.7373 56.7684 45.956 53.0202 41.2915 53.0202C36.627 53.0202 32.8457 56.7684 32.8457 61.392C32.8457 66.0157 36.627 69.7639 41.2915 69.7639Z" fill="#FEF2E1"/>
<ellipse cx="35.1391" cy="70.7522" rx="1.09811" ry="1.0885" fill="#FEF2E1"/>
<ellipse cx="35.1391" cy="74.0177" rx="1.09811" ry="1.0885" fill="#FEF2E1"/>
<ellipse cx="35.1391" cy="77.2832" rx="1.09811" ry="1.0885" fill="#FEF2E1"/>
<ellipse cx="35.1391" cy="80.5487" rx="1.09811" ry="1.0885" fill="#FEF2E1"/>
</svg>
