<svg width="91" height="89" viewBox="-14.07 -21.24 125 125" fill="none" xmlns="http://www.w3.org/2000/svg">
<path fill-rule="evenodd" clip-rule="evenodd" d="M46.3671 67.7352C46.5221 69.5665 46.6309 71.6028 46.6782 73.7472C46.7595 77.4396 49.5176 80.8151 51.5934 83.3556C53.9922 86.2916 55.4799 88.1122 50.8721 88.018C49.7851 87.9957 42.9169 81.6261 42.7415 73.6666C42.7164 72.5244 42.71 71.4135 42.7209 70.3486C41.9293 73.7681 40.9432 76.7325 39.8834 78.7285C35.3454 87.2752 24.7758 84.4224 17.1225 80.673C9.46929 76.9236 -3.26103 70.0686 1.27693 61.522C3.48259 57.3679 10.8734 51.3126 18.7667 46.6161C14.6114 46.5142 10.9194 46.0889 8.39741 45.368C-1.67329 42.4893 -0.85364 31.4587 1.53579 23.1517C3.92523 14.8448 8.55928 0.909503 18.63 3.78823C24.4599 5.45473 34.7139 13.9078 41.8524 22.343C45.873 14.0395 53.0553 5.1036 57.8991 1.87681C66.1995 -3.65275 75.0629 4.10999 80.7061 11.2579C86.3494 18.4058 95.4518 30.8564 87.1513 36.3859C83.1215 39.0705 73.2386 40.9423 63.4899 41.3399C72.058 43.9087 80.8585 48.1112 84.8072 51.442C92.6903 58.0914 86.7422 67.4651 80.6369 73.8001C74.5316 80.135 63.7157 90.5064 55.8326 83.857C52.6809 81.1985 49.1182 74.8287 46.3671 67.7352Z" stroke="#A9D7D0" stroke-width="2" fill="#F8FAF9"/>
<ellipse cx="4.5212" cy="4.90519" rx="4.5212" ry="4.90519" transform="matrix(0.997497 0.0822758 -0.017851 1.00014 23.999 35.0583)" fill="#575252"/>
<ellipse cx="1.80562" cy="2.13548" rx="1.80562" ry="2.13548" transform="matrix(0.9975 0.0822058 -0.0179432 1.00013 27.6357 36.6406)" fill="#D9D9D9"/>
<ellipse cx="4.5212" cy="4.90519" rx="4.5212" ry="4.90519" transform="matrix(0.997497 0.0822758 -0.017851 1.00014 51.1221 36.9165)" fill="#575252"/>
<ellipse cx="1.80562" cy="2.13548" rx="1.80562" ry="2.13548" transform="matrix(0.9975 0.0822059 -0.0179432 1.00013 52.376 38.3335)" fill="#D9D9D9"/>
<ellipse cx="2.6973" cy="2.19429" rx="2.6973" ry="2.19429" transform="matrix(0.997619 0.0776427 -0.0238288 0.999689 38.8965 46.3401)" fill="#575252"/>
</svg>
