<svg width="123" height="123" viewBox="0 0 123 123" fill="none" xmlns="http://www.w3.org/2000/svg">
<path d="M60.1819 94.0199C60.3573 101.979 72.9708 108.467 64.3759 108.291C63.2888 108.268 56.4207 101.899 56.2453 93.9393C56.0699 85.9798 56.809 79.5454 57.896 79.5676C58.9831 79.5899 60.0065 86.0603 60.1819 94.0199Z" fill="#B1E49F"/>
<path d="M53.459 60.4027C61.1123 64.1521 57.9253 90.4545 53.3874 99.0012C48.8494 107.548 38.2797 104.695 30.6265 100.946C22.9733 97.1963 10.2429 90.3414 14.7809 81.7947C19.3189 73.248 45.8058 56.6534 53.459 60.4027Z" fill="#B1E49F"/>
<path d="M63.0871 58.376C60.6977 66.683 31.9723 68.5195 21.9016 65.6407C11.8309 62.762 12.6506 51.7314 15.04 43.4245C17.4295 35.1175 22.0635 21.1822 32.1342 24.061C42.2049 26.9397 65.4765 50.0691 63.0871 58.376Z" fill="#B1E49F"/>
<path d="M53.5774 57.1219C47.9342 49.974 63.1019 27.6791 71.4024 22.1495C79.7029 16.62 88.5663 24.3827 94.2095 31.5306C99.8527 38.6785 108.955 51.1291 100.655 56.6587C92.3542 62.1882 59.2206 64.2698 53.5774 57.1219Z" fill="#B1E49F"/>
<path d="M57.1039 61.2772C63.2092 54.9422 90.4278 65.0653 98.3109 71.7147C106.194 78.3642 100.246 87.7379 94.1405 94.0728C88.0352 100.408 77.2193 110.779 69.3362 104.13C61.4532 97.4803 50.9986 67.6121 57.1039 61.2772Z" fill="#B1E49F"/>
<path d="M53.887 74.7299C46.9359 64.7683 57.9906 67.8616 60.0611 69.5806C62.1315 71.2996 60.8382 84.6915 53.887 74.7299Z" fill="#EC5858" stroke="#EC5858"/>
<path d="M47.6489 61.7625C47.6489 61.7625 37.7406 58.1563 38.7954 56.7815C39.7773 55.5017 48.7536 60.9211 47.9878 61.6761C48.3886 61.9904 42.6904 67.5782 41.7734 68.2377C40.7605 68.9664 47.6489 61.7625 47.6489 61.7625Z" fill="#575252"/>
<path d="M47.6489 61.7625C47.6489 61.7625 37.7406 58.1563 38.7954 56.7815C39.8502 55.4067 50.1306 61.7627 47.6489 61.7625ZM47.6489 61.7625C49.6342 60.7664 42.7864 67.5091 41.7734 68.2377C40.7605 68.9664 47.6489 61.7625 47.6489 61.7625Z" stroke="#575252"/>
<path d="M62.8817 61.9162C62.8817 61.9162 71.7635 56.2216 70.4345 55.1118C69.1973 54.0787 61.6202 61.3378 62.5322 61.9064C62.2096 62.3011 68.9881 66.5021 70.0267 66.9443C71.1739 67.4329 62.8817 61.9162 62.8817 61.9162Z" fill="#575252"/>
<path d="M62.8817 61.9162C62.8817 61.9162 71.7635 56.2216 70.4345 55.1118C69.1055 54.002 60.4601 62.4614 62.8817 61.9162ZM62.8817 61.9162C60.7273 61.3802 68.8794 66.4558 70.0267 66.9443C71.1739 67.4329 62.8817 61.9162 62.8817 61.9162Z" stroke="#575252"/>
</svg>
