<!-- <svg width="51" height="50" viewBox="0 0 51 50" fill="none" xmlns="http://www.w3.org/2000/svg"> -->
<svg width="123" height="123" viewBox="0 0 123 123" fill="none" xmlns="http://www.w3.org/2000/svg">
<path d="M24.868 38.2195C24.9393 41.4551 30.0668 44.0921 26.5729 44.0207C26.131 44.0116 23.3391 41.4223 23.2678 38.1868C23.1965 34.9512 23.4969 32.3356 23.9388 32.3446C24.3807 32.3537 24.7967 34.9839 24.868 38.2195Z" fill="#A9D7D0"/>
<path d="M22.1344 24.554C25.2454 26.0781 23.9499 36.7701 22.1052 40.2444C20.2605 43.7186 15.9639 42.559 12.8528 41.0348C9.74177 39.5107 4.56684 36.7241 6.41154 33.2499C8.25624 29.7756 19.0233 23.0298 22.1344 24.554Z" fill="#A9D7D0"/>
<path d="M26.049 23.7301C25.0777 27.1069 13.4007 27.8534 9.30692 26.6832C5.21314 25.513 5.54633 21.029 6.51764 17.6522C7.48896 14.2754 9.37272 8.61064 13.4665 9.78085C17.5603 10.9511 27.0203 20.3533 26.049 23.7301Z" fill="#A9D7D0"/>
<path d="M22.1827 23.2203C19.8887 20.3146 26.0545 11.2517 29.4286 9.00388C32.8028 6.75609 36.4058 9.91168 38.6998 12.8173C40.9938 15.723 44.694 20.7842 41.3198 23.032C37.9456 25.2798 24.4767 26.1259 22.1827 23.2203Z" fill="#A9D7D0"/>
<path d="M23.6166 24.9094C26.0984 22.3343 37.1629 26.4493 40.3674 29.1524C43.5719 31.8554 41.1539 35.6658 38.6721 38.241C36.1903 40.8162 31.7936 45.0322 28.5891 42.3292C25.3846 39.6262 21.1348 27.4846 23.6166 24.9094Z" fill="#A9D7D0"/>
<ellipse cx="1.83788" cy="1.99398" rx="1.83788" ry="1.99398" transform="matrix(0.997497 0.0822759 -0.0178509 1.00014 15.4795 22.672)" fill="#575252"/>
<ellipse cx="0.73399" cy="0.868081" rx="0.73399" ry="0.868081" transform="matrix(0.9975 0.0822059 -0.0179432 1.00013 16.958 23.3152)" fill="#D9D9D9"/>
<ellipse cx="1.83789" cy="1.99398" rx="1.83789" ry="1.99398" transform="matrix(0.997497 0.0822758 -0.017851 1.00014 26.5049 23.4275)" fill="#575252"/>
<ellipse cx="0.733991" cy="0.868081" rx="0.733991" ry="0.868081" transform="matrix(0.9975 0.0822061 -0.017943 1.00013 27.0146 24.0035)" fill="#D9D9D9"/>
<ellipse cx="1.09646" cy="0.891988" rx="1.09646" ry="0.891988" transform="matrix(0.997619 0.0776428 -0.0238287 0.999689 21.5352 27.2582)" fill="#575252"/>
</svg>
