<svg width="123" height="123" viewBox="0 0 123 123" fill="none" xmlns="http://www.w3.org/2000/svg">
<path d="M60.1819 94.0199C60.3573 101.979 72.9708 108.467 64.3759 108.291C63.2888 108.268 56.4207 101.899 56.2453 93.9393C56.0699 85.9798 56.809 79.5454 57.896 79.5676C58.9831 79.5899 60.0065 86.0603 60.1819 94.0199Z" fill="#A9D7D0"/>
<path d="M53.459 60.4027C61.1123 64.1521 57.9253 90.4545 53.3874 99.0012C48.8494 107.548 38.2797 104.695 30.6265 100.946C22.9733 97.1963 10.2429 90.3414 14.7809 81.7947C19.3189 73.248 45.8058 56.6534 53.459 60.4027Z" fill="#A9D7D0"/>
<path d="M63.0871 58.3762C60.6977 66.6831 31.9723 68.5196 21.9016 65.6409C11.8309 62.7621 12.6506 51.7316 15.04 43.4246C17.4295 35.1176 22.0635 21.1824 32.1342 24.0611C42.2049 26.9398 65.4765 50.0692 63.0871 58.3762Z" fill="#A9D7D0"/>
<path d="M53.5774 57.122C47.9342 49.9741 63.1019 27.6792 71.4024 22.1496C79.7029 16.6201 88.5663 24.3828 94.2095 31.5307C99.8527 38.6787 108.955 51.1292 100.655 56.6588C92.3542 62.1883 59.2206 64.2699 53.5774 57.122Z" fill="#A9D7D0"/>
<path d="M57.1039 61.2772C63.2092 54.9422 90.4278 65.0653 98.3109 71.7147C106.194 78.3642 100.246 87.7379 94.1405 94.0728C88.0352 100.408 77.2193 110.779 69.3362 104.13C61.4532 97.4803 50.9986 67.6121 57.1039 61.2772Z" fill="#A9D7D0"/>
<ellipse cx="4.5212" cy="4.90519" rx="4.5212" ry="4.90519" transform="matrix(0.997497 0.0822758 -0.017851 1.00014 37.0859 55.7734)" fill="#575252"/>
<ellipse cx="1.80562" cy="2.13548" rx="1.80562" ry="2.13548" transform="matrix(0.9975 0.0822058 -0.0179432 1.00013 40.7227 57.3557)" fill="#D9D9D9"/>
<ellipse cx="4.5212" cy="4.90519" rx="4.5212" ry="4.90519" transform="matrix(0.997497 0.0822758 -0.017851 1.00014 64.209 57.6316)" fill="#575252"/>
<ellipse cx="1.80562" cy="2.13548" rx="1.80562" ry="2.13548" transform="matrix(0.9975 0.0822059 -0.0179432 1.00013 65.4629 59.0486)" fill="#D9D9D9"/>
<ellipse cx="2.6973" cy="2.19429" rx="2.6973" ry="2.19429" transform="matrix(0.997619 0.0776427 -0.0238288 0.999689 51.9834 67.0552)" fill="#575252"/>
</svg>
