<svg width="124" height="123" viewBox="0 0 124 123" fill="none" xmlns="http://www.w3.org/2000/svg">
<path d="M60.3942 94.0199C60.5702 101.979 73.2282 108.467 64.6029 108.291C63.512 108.268 56.6197 101.899 56.4437 93.9393C56.2677 85.9798 57.0093 79.5454 58.1002 79.5676C59.1911 79.5899 60.2182 86.0603 60.3942 94.0199Z" fill="#9CA0C7"/>
<path d="M53.6465 60.4027C61.3267 64.1521 58.1285 90.4545 53.5745 99.0012C49.0206 107.548 38.4136 104.695 30.7334 100.946C23.0532 97.1963 10.278 90.3414 14.832 81.7947C19.386 73.248 45.9663 56.6534 53.6465 60.4027Z" fill="#9CA0C7"/>
<path d="M63.3089 58.376C60.9111 66.683 32.0845 68.5195 21.9783 65.6407C11.8721 62.762 12.6946 51.7314 15.0925 43.4245C17.4904 35.1175 22.1407 21.1822 32.2469 24.061C42.3531 26.9397 65.7068 50.0691 63.3089 58.376Z" fill="#9CA0C7"/>
<path d="M53.7662 57.1219C48.1031 49.9739 63.3244 27.6791 71.6541 22.1495C79.9838 16.62 88.8784 24.3827 94.5416 31.5306C100.205 38.6785 109.339 51.1291 101.009 56.6587C92.6797 62.1882 59.4294 64.2698 53.7662 57.1219Z" fill="#9CA0C7"/>
<path d="M57.3049 61.2772C63.4317 54.9422 90.7462 65.0653 98.657 71.7147C106.568 78.3642 100.599 87.7379 94.472 94.0728C88.3452 100.408 77.4912 110.779 69.5803 104.13C61.6694 97.4803 51.1781 67.6121 57.3049 61.2772Z" fill="#9CA0C7"/>
<ellipse rx="4.53073" ry="4.91141" transform="matrix(0.997872 0.0825593 -0.0173062 0.999729 41.6539 61.0513)" fill="#575252"/>
<ellipse rx="1.80932" ry="2.13808" transform="matrix(0.997874 0.0824873 -0.0174013 0.999722 42.6345 59.6398)" fill="#D9D9D9"/>
<ellipse rx="4.53073" ry="4.91141" transform="matrix(0.997872 0.0825593 -0.0173062 0.999729 68.8726 62.9096)" fill="#575252"/>
<ellipse rx="1.80932" ry="2.13808" transform="matrix(0.997874 0.0824874 -0.0174012 0.999722 67.4626 61.333)" fill="#D9D9D9"/>
<path d="M48.8735 72.7206C48.3754 73.2187 49.3094 71.5664 53.7922 70.342C58.2749 69.1176 62.259 73.717 62.259 72.7207C62.259 71.7244 53.3563 67.7547 48.8735 72.7355" stroke="#575252"/>
</svg>
