<svg width="123" height="123" viewBox="0 0 123 123" fill="none" xmlns="http://www.w3.org/2000/svg">
<path d="M60.1819 94.0199C60.3573 101.979 72.9708 108.467 64.3759 108.291C63.2888 108.268 56.4207 101.899 56.2453 93.9393C56.0699 85.9798 56.809 79.5454 57.896 79.5676C58.9831 79.5899 60.0065 86.0603 60.1819 94.0199Z" fill="#AFAFAF"/>
<path d="M53.459 60.4027C61.1123 64.1521 57.9253 90.4545 53.3874 99.0012C48.8494 107.548 38.2797 104.695 30.6265 100.946C22.9733 97.1963 10.2429 90.3414 14.7809 81.7947C19.3189 73.248 45.8058 56.6534 53.459 60.4027Z" fill="#AFAFAF"/>
<path d="M63.0871 58.376C60.6977 66.683 31.9723 68.5195 21.9016 65.6407C11.8309 62.762 12.6506 51.7314 15.04 43.4245C17.4295 35.1175 22.0635 21.1822 32.1342 24.061C42.2049 26.9397 65.4765 50.0691 63.0871 58.376Z" fill="#AFAFAF"/>
<path d="M53.5774 57.1219C47.9342 49.974 63.1019 27.6791 71.4024 22.1495C79.7029 16.62 88.5663 24.3827 94.2095 31.5306C99.8527 38.6785 108.955 51.1291 100.655 56.6587C92.3542 62.1882 59.2206 64.2698 53.5774 57.1219Z" fill="#AFAFAF"/>
<path d="M57.1039 61.2772C63.2092 54.9422 90.4278 65.0653 98.3109 71.7147C106.194 78.3642 100.246 87.7379 94.1405 94.0728C88.0352 100.408 77.2193 110.779 69.3362 104.13C61.4532 97.4803 50.9986 67.6121 57.1039 61.2772Z" fill="#AFAFAF"/>
<ellipse rx="2.6973" ry="2.19429" transform="matrix(0.997619 0.0776427 -0.0238288 0.999689 54.621 69.4582)" fill="#575252"/>
<path d="M37.8005 61.8668C37.471 61.5033 38.0888 62.7091 41.0541 63.6027C44.0194 64.4962 46.6548 61.1397 46.6548 61.8667C46.6548 62.5938 40.7658 65.4908 37.8005 61.8559" stroke="#575252"/>
<path d="M72.3851 61.8668C72.7146 61.5033 72.0968 62.7091 69.1315 63.6027C66.1662 64.4962 63.5308 61.1397 63.5308 61.8667C63.5308 62.5938 69.4198 65.4908 72.3851 61.8559" stroke="#575252"/>
<path d="M78.3927 42.5878C78.095 43.0702 76.7534 42.9038 74.8089 42.6627C72.8644 42.4216 71.5228 42.2553 71.3511 41.7147C71.6488 41.2324 72.9904 41.3987 74.9349 41.6398C76.8794 41.8809 78.221 42.0473 78.3927 42.5878Z" fill="#D9D9D9"/>
<path d="M78.097 49.5044C77.7884 49.9854 76.3844 49.8113 74.3495 49.559C72.3147 49.3067 70.9107 49.1326 70.728 48.5907C71.0366 48.1097 72.4406 48.2838 74.4755 48.5361C76.5104 48.7884 77.9143 48.9625 78.097 49.5044Z" fill="#D9D9D9"/>
<path d="M78.4188 42.6193C78.4829 43.2267 77.022 44.3924 74.9047 46.082C72.7873 47.7716 71.3265 48.9374 70.7513 48.738C70.6872 48.1306 72.1481 46.9649 74.2654 45.2753C76.3828 43.5857 77.8436 42.4199 78.4188 42.6193Z" fill="#D9D9D9"/>
<path d="M86.0463 40.7286C85.7989 40.9844 84.9981 40.7008 83.8373 40.2897C82.6766 39.8787 81.8757 39.5951 81.8429 39.2401C82.0903 38.9844 82.8912 39.268 84.0519 39.6791C85.2127 40.0901 86.0135 40.3737 86.0463 40.7286Z" fill="#D9D9D9"/>
<path d="M84.9381 44.9325C84.6842 45.1859 83.846 44.8892 82.6313 44.4592C81.4166 44.0292 80.5785 43.7325 80.5392 43.3753C80.7931 43.1219 81.6312 43.4186 82.846 43.8486C84.0607 44.2786 84.8988 44.5753 84.9381 44.9325Z" fill="#D9D9D9"/>
<path d="M86.0612 40.7515C86.0189 41.1328 84.9659 41.6506 83.4398 42.401C81.9137 43.1514 80.8607 43.6691 80.5345 43.469C80.5768 43.0876 81.6298 42.5699 83.1559 41.8195C84.682 41.0691 85.735 40.5513 86.0612 40.7515Z" fill="#D9D9D9"/>
<path d="M90.9026 43.6914C90.802 43.8995 90.2509 43.8883 89.4523 43.8719C88.6536 43.8556 88.1026 43.8443 88.0104 43.6323C88.1111 43.4242 88.6621 43.4355 89.4607 43.4518C90.2594 43.4681 90.8104 43.4794 90.9026 43.6914Z" fill="#D9D9D9"/>
<path d="M91.0731 46.5081C90.968 46.7161 90.3914 46.7043 89.5556 46.6874C88.7198 46.6704 88.1432 46.6586 88.0465 46.4465C88.1517 46.2385 88.7283 46.2502 89.5641 46.2672C90.3998 46.2842 90.9765 46.2959 91.0731 46.5081Z" fill="#D9D9D9"/>
<path d="M90.9154 43.7023C90.9666 43.9459 90.4227 44.4799 89.6343 45.254C88.846 46.028 88.3021 46.562 88.0605 46.5053C88.0092 46.2617 88.5531 45.7276 89.3415 44.9536C90.1298 44.1796 90.6738 43.6455 90.9154 43.7023Z" fill="#D9D9D9"/>
</svg>
