<!-- <svg width="91" height="89" viewBox="0 0 91 89" fill="none" xmlns="http://www.w3.org/2000/svg"> -->
<svg width="91" height="89" viewBox="-14.07 -21.24 125 125" fill="none" xmlns="http://www.w3.org/2000/svg">
<path fill-rule="evenodd" clip-rule="evenodd" d="M46.4677 68.0079C46.6227 69.8392 46.7315 71.8755 46.7787 74.0199C46.8601 77.7123 49.6182 81.0878 51.694 83.6283C54.0928 86.5643 55.5805 88.3849 50.9727 88.2907C49.8856 88.2684 43.0175 81.8988 42.8421 73.9393C42.817 72.7971 42.8106 71.6862 42.8214 70.6214C42.0299 74.0408 41.0438 77.0052 39.984 79.0012C35.446 87.5479 24.8763 84.6951 17.2231 80.9457C9.56987 77.1963 -3.16044 70.3414 1.37752 61.7947C3.58317 57.6406 10.974 51.5853 18.8673 46.8888C14.712 46.7869 11.02 46.3616 8.498 45.6407C-1.5727 42.762 -0.753053 31.7314 1.63638 23.4244C4.02581 15.1175 8.65987 1.18221 18.7306 4.06094C24.5605 5.72744 34.8145 14.1805 41.953 22.6157C45.9736 14.3122 53.1559 5.37631 57.9997 2.14952C66.3001 -3.38005 75.1635 4.3827 80.8067 11.5306C86.4499 18.6785 95.5524 31.1291 87.2519 36.6587C83.2221 39.3432 73.3392 41.215 63.5905 41.6126C72.1586 44.1814 80.959 48.3839 84.9078 51.7147C92.7909 58.3642 86.8428 67.7378 80.7375 74.0728C74.6322 80.4077 63.8163 90.7791 55.9332 84.1297C52.7815 81.4712 49.2188 75.1014 46.4677 68.0079Z" stroke="#A9D7D0" stroke-width="2" fill="#F8FAF9"/>
</svg>
