<svg width="38" height="37" viewBox="-6 -8 50 50" fill="none" xmlns="http://www.w3.org/2000/svg">
<path fill-rule="evenodd" clip-rule="evenodd" d="M19.3375 27.7756C19.4005 28.52 19.4448 29.3478 19.464 30.2195C19.497 31.7205 20.6182 33.0926 21.462 34.1254C22.4372 35.3188 23.0419 36.0589 21.1688 36.0206C20.7269 36.0116 17.935 33.4223 17.8637 30.1867C17.8535 29.7224 17.8509 29.2708 17.8553 28.8379C17.5335 30.228 17.1327 31.433 16.7019 32.2444C14.8572 35.7187 10.5605 34.559 7.44948 33.0349C4.33841 31.5107 -0.836514 28.7241 1.00819 25.2499C1.90479 23.5612 4.90921 21.0997 8.11787 19.1906C6.42872 19.1491 4.92791 18.9763 3.90269 18.6832C-0.19109 17.513 0.1421 13.029 1.11341 9.65223C2.08473 6.27541 3.96849 0.610674 8.06227 1.78089C10.4322 2.45833 14.6004 5.89454 17.5023 9.32349C19.1367 5.94809 22.0563 2.31559 24.0253 1.00389C27.3995 -1.2439 31.0025 1.91169 33.2965 4.81735C35.5905 7.723 39.2906 12.7842 35.9165 15.032C34.2784 16.1233 30.2609 16.8842 26.298 17.0458C29.781 18.09 33.3584 19.7983 34.9636 21.1523C38.1681 23.8554 35.7502 27.6658 33.2683 30.241C30.7865 32.8162 26.3898 37.0322 23.1853 34.3292C21.9041 33.2485 20.4559 30.6591 19.3375 27.7756Z" stroke="#9A9A9A"/>
</svg>
