<svg width="123" height="123" viewBox="0 0 123 123" fill="none" xmlns="http://www.w3.org/2000/svg">
<path d="M60.1819 94.0199C60.3573 101.979 72.9708 108.467 64.3759 108.291C63.2888 108.268 56.4207 101.899 56.2453 93.9393C56.0699 85.9798 56.809 79.5454 57.896 79.5676C58.9831 79.5899 60.0065 86.0603 60.1819 94.0199Z" fill="#F58585"/>
<path d="M53.459 60.4027C61.1123 64.1521 57.9253 90.4545 53.3874 99.0012C48.8494 107.548 38.2797 104.695 30.6265 100.946C22.9733 97.1963 10.2429 90.3414 14.7809 81.7947C19.3189 73.248 45.8058 56.6534 53.459 60.4027Z" fill="#F58585"/>
<path d="M63.0871 58.376C60.6977 66.683 31.9723 68.5195 21.9016 65.6407C11.8309 62.762 12.6506 51.7314 15.04 43.4245C17.4295 35.1175 22.0635 21.1822 32.1342 24.061C42.2049 26.9397 65.4765 50.0691 63.0871 58.376Z" fill="#F58585"/>
<path d="M53.5774 57.1219C47.9342 49.974 63.1019 27.6791 71.4024 22.1495C79.7029 16.62 88.5663 24.3827 94.2095 31.5306C99.8527 38.6785 108.955 51.1291 100.655 56.6587C92.3542 62.1882 59.2206 64.2698 53.5774 57.1219Z" fill="#F58585"/>
<path d="M57.1039 61.2772C63.2092 54.9422 90.4278 65.0653 98.3109 71.7147C106.194 78.3642 100.246 87.7379 94.1405 94.0728C88.0352 100.408 77.2193 110.779 69.3362 104.13C61.4532 97.4803 50.9986 67.6121 57.1039 61.2772Z" fill="#F58585"/>
<ellipse rx="4.5212" ry="4.90519" transform="matrix(0.997497 0.0822758 -0.017851 1.00014 41.5083 61.0512)" fill="#575252"/>
<ellipse rx="1.80562" ry="2.13548" transform="matrix(0.9975 0.0822058 -0.0179432 1.00013 42.4854 59.6397)" fill="#D9D9D9"/>
<ellipse rx="4.5212" ry="4.90519" transform="matrix(0.997497 0.0822758 -0.017851 1.00014 68.6313 62.9096)" fill="#575252"/>
<ellipse rx="1.80562" ry="2.13548" transform="matrix(0.9975 0.0822059 -0.0179432 1.00013 67.2257 61.3329)" fill="#D9D9D9"/>
<ellipse rx="2.6973" ry="2.19429" transform="matrix(0.997619 0.0776427 -0.0238288 0.999689 54.622 69.4582)" fill="#575252"/>
<path d="M72.5329 28.0335C72.5205 27.4942 74.7984 29.8889 77.5388 29.8254C80.2793 29.7619 82.4446 27.2642 82.457 27.8035C82.4694 28.3428 80.3253 31.7609 77.5848 31.8244C74.8444 31.8879 72.5453 28.5728 72.5329 28.0335Z" fill="#D9D9D9"/>
<path d="M86.2317 31.2294C86.7608 31.3244 83.9692 33.0884 83.4862 35.7963C83.0033 38.5041 85.0119 41.1303 84.4828 41.0353C83.9536 40.9402 81.0419 38.1518 81.5248 35.444C82.0078 32.7361 85.7026 31.1343 86.2317 31.2294Z" fill="#D9D9D9"/>
<path d="M82.8277 43.4408C82.8558 43.9795 80.5091 41.6526 77.7717 41.7964C75.0343 41.9402 72.9426 44.5003 72.9145 43.9616C72.8864 43.4229 74.9301 39.9433 77.6675 39.7995C80.405 39.6557 82.7996 42.9021 82.8277 43.4408Z" fill="#D9D9D9"/>
<path d="M70.8681 41.3887C70.3369 41.4711 72.4071 38.8935 71.9883 36.1749C71.5695 33.4563 68.8204 31.6263 69.3516 31.5439C69.8829 31.4615 73.5387 33.1509 73.9575 35.8694C74.3763 38.588 71.3994 41.3063 70.8681 41.3887Z" fill="#D9D9D9"/>
<ellipse rx="6.45502" ry="0.99577" transform="matrix(0.940119 -0.340847 0.338732 0.940883 66.9605 54.9381)" fill="#575252"/>
<ellipse rx="6.45861" ry="0.995219" transform="matrix(0.85175 0.523949 -0.521276 0.853388 43.7421 54.042)" fill="#575252"/>
</svg>
