<svg width="25" height="24" viewBox="0 0 25 24" fill="none" xmlns="http://www.w3.org/2000/svg">
<path d="M11.4023 4H4.40234C3.87191 4 3.3632 4.21071 2.98813 4.58579C2.61306 4.96086 2.40234 5.46957 2.40234 6V20C2.40234 20.5304 2.61306 21.0391 2.98813 21.4142C3.3632 21.7893 3.87191 22 4.40234 22H18.4023C18.9328 22 19.4415 21.7893 19.8166 21.4142C20.1916 21.0391 20.4023 20.5304 20.4023 20V13" stroke="#667080" stroke-width="2" stroke-linecap="round" stroke-linejoin="round"/>
<path d="M18.9023 2.50001C19.3002 2.10219 19.8397 1.87869 20.4023 1.87869C20.965 1.87869 21.5045 2.10219 21.9023 2.50001C22.3002 2.89784 22.5237 3.4374 22.5237 4.00001C22.5237 4.56262 22.3002 5.10219 21.9023 5.50001L12.4023 15L8.40234 16L9.40234 12L18.9023 2.50001Z" stroke="#667080" stroke-width="2" stroke-linecap="round" stroke-linejoin="round"/>
</svg>
