<svg width="17" height="17" viewBox="0 0 17 17" fill="none" xmlns="http://www.w3.org/2000/svg">
<path d="M13.4583 7.7915H3.54167C2.75926 7.7915 2.125 8.42577 2.125 9.20817V14.1665C2.125 14.9489 2.75926 15.5832 3.54167 15.5832H13.4583C14.2407 15.5832 14.875 14.9489 14.875 14.1665V9.20817C14.875 8.42577 14.2407 7.7915 13.4583 7.7915Z" stroke="#D9D9D9" stroke-width="2" stroke-linecap="round" stroke-linejoin="round"/>
<path d="M4.95801 7.7915V4.95817C4.95801 4.01886 5.33115 3.11803 5.99534 2.45383C6.65953 1.78964 7.56037 1.4165 8.49967 1.4165C9.43898 1.4165 10.3398 1.78964 11.004 2.45383C11.6682 3.11803 12.0413 4.01886 12.0413 4.95817V7.7915" stroke="#D9D9D9" stroke-width="2" stroke-linecap="round" stroke-linejoin="round"/>
</svg>
